<?xml version="1.0" encoding="iso-8859-1"?>
<!-- Generator: Adobe Illustrator 19.0.0, SVG Export Plug-In . SVG Version: 6.00 Build 0)  -->
<svg xmlns="http://www.w3.org/2000/svg" xmlns:xlink="http://www.w3.org/1999/xlink" version="1.1" id="Layer_1" x="0px" y="0px" viewBox="0 0 512.003 512.003" style="enable-background:new 0 0 512.003 512.003;" xml:space="preserve">
<g>
	<g>
		<path d="M297.531,171.915c-36.262-45.141-60.265-100.524-66.915-161.055c-0.71-6.467-6.728-11.013-13.16-10.046    c-43.463,6.533-83.394,23.976-116.93,49.431c-5.566,4.225-6.124,12.397-1.183,17.338l150.434,150.434    c4.498,4.5,11.792,4.5,16.29,0.001l30.683-30.683C300.929,183.158,301.232,176.523,297.531,171.915z"/>
	</g>
</g>
<g>
	<g>
		<path d="M138.347,326.475C102.399,302.106,59.79,286.86,13.869,284.09c-7.334-0.443-13.235,6.069-12.041,13.321    c7.103,43.155,24.967,82.729,50.745,115.863c4.241,5.453,12.328,5.914,17.214,1.029l70.181-70.181    C145.06,339.025,144.309,330.517,138.347,326.475z"/>
	</g>
</g>
<g>
	<g>
		<path d="M217.928,249.867L67.564,99.503c-4.938-4.938-13.124-4.399-17.329,1.176c-26.946,35.716-44.811,78.64-50.15,125.32    c-0.757,6.621,4.234,12.559,10.893,12.834c60.773,2.509,116.848,23.521,162.74,57.533c4.608,3.416,11.005,2.998,15.061-1.059    l29.15-29.15C222.426,261.659,222.426,254.365,217.928,249.867z"/>
	</g>
</g>
<g>
	<g>
		<path d="M413.688,52.111c-35.349-27.495-78.027-45.99-124.562-52.015c-7.482-0.967-13.881,5.483-12.855,12.957    c6.363,46.358,24.646,88.965,51.652,124.623c4.213,5.563,12.387,6.099,17.322,1.164l69.494-69.494    C419.632,64.453,419.152,56.36,413.688,52.111z"/>
	</g>
</g>
<g>
	<g>
		<path d="M511.929,228.062c-4.929-46.419-22.248-89.19-48.571-124.946c-4.171-5.666-12.432-6.256-17.407-1.281l-69.101,69.101    c-4.901,4.901-4.416,13.007,1.066,17.247c34.56,26.734,75.812,45.208,120.78,52.432    C506.138,241.81,512.724,235.557,511.929,228.062z"/>
	</g>
</g>
<g>
	<g>
		<path d="M499.812,286.299c-58.632-7.806-112.177-31.923-155.908-67.633c-4.608-3.766-11.294-3.492-15.501,0.715l-30.488,30.488    c-4.498,4.498-4.498,11.792,0,16.29l145.828,145.829c4.935,4.935,13.104,4.393,17.325-1.165    c24.327-32.045,41.337-69.933,48.502-111.16C510.684,293.256,506.258,287.156,499.812,286.299z"/>
	</g>
</g>
<g>
	<g>
		<path d="M245.883,498.926c-6.459-46.859-25.973-89.607-54.748-124.442c-4.326-5.238-12.232-5.603-17.035-0.8l-71.823,71.823    c-4.98,4.98-4.38,13.242,1.291,17.418c37.043,27.266,81.617,44.859,129.973,49.035    C240.859,512.592,246.886,506.202,245.883,498.926z"/>
	</g>
</g>
<g>
	<g>
		<path d="M411.826,443.764L266.069,298.007c-4.5-4.498-11.794-4.498-16.292,0l-27.401,27.401    c-4.282,4.282-4.464,11.117-0.51,15.705c37.334,43.32,62.307,97.577,69.365,157.249c0.784,6.621,7.087,11.149,13.633,9.882    c39.119-7.564,75.11-24.006,105.784-47.147C416.224,456.889,416.766,448.704,411.826,443.764z"/>
	</g>
</g>
<g>
</g>
<g>
</g>
<g>
</g>
<g>
</g>
<g>
</g>
<g>
</g>
<g>
</g>
<g>
</g>
<g>
</g>
<g>
</g>
<g>
</g>
<g>
</g>
<g>
</g>
<g>
</g>
<g>
</g>
</svg>
