<?xml version="1.0" encoding="iso-8859-1"?>
<!-- Generator: Adobe Illustrator 19.0.0, SVG Export Plug-In . SVG Version: 6.00 Build 0)  -->
<svg xmlns="http://www.w3.org/2000/svg" xmlns:xlink="http://www.w3.org/1999/xlink" version="1.1" id="Layer_1" x="0px" y="0px" viewBox="0 0 512 512" style="enable-background:new 0 0 512 512;" xml:space="preserve">
<g>
	<g>
		<path d="M173.501,477.339L35.507,339.344c-4.884-4.884-12.803-4.884-17.688,0l-6.093,6.093c-14.531,14.531-14.531,38.091,0,52.624    l103.057,103.057c7.255,7.255,16.783,10.882,26.312,10.882s19.057-3.627,26.312-10.882l6.093-6.093    C178.385,490.141,178.385,482.223,173.501,477.339z"/>
	</g>
</g>
<g>
	<g>
		<path d="M462.044,52.627l-3.422-3.422c-65.607-65.607-171.975-65.607-237.582,0l-19.194,19.194    c-2.008-10.864-7.346-21.814-17.73-32.198c-30.379-30.379-79.81-30.379-110.189,0c-1.155,1.155-2.146,2.412-2.969,3.743    c-48.466,50.988-38.247,130.65-15.103,171.588c11.723,20.736,24.337,27.051,34.088,28.145c-0.568,9.023-0.419,18.083,0.459,27.087    l-25.659,25.659c-4.884,4.884-4.884,12.802,0,17.686l137.995,137.995c4.884,4.884,12.802,4.884,17.686,0l27.001-27.001    c4.497,0.36,9.004,0.55,13.513,0.55c43.02,0,86.041-16.377,118.79-49.126l82.317-82.317    C527.547,224.709,527.547,118.129,462.044,52.627z M444.271,173.26c-0.492,27.996-13.61,55.652-37.937,79.98    c-4.037,4.037-9.328,6.056-14.617,6.056c-5.289,0-10.582-2.018-14.617-6.056c-8.073-8.072-8.073-21.16,0-29.235    c42.893-42.896,24.534-79.262,1.579-102.215c-8.073-8.072-8.073-21.16,0-29.235c8.072-8.072,21.162-8.075,29.235,0    C432.2,116.837,444.771,144.745,444.271,173.26z"/>
	</g>
</g>
<g>
</g>
<g>
</g>
<g>
</g>
<g>
</g>
<g>
</g>
<g>
</g>
<g>
</g>
<g>
</g>
<g>
</g>
<g>
</g>
<g>
</g>
<g>
</g>
<g>
</g>
<g>
</g>
<g>
</g>
</svg>
