<?xml version="1.0" encoding="iso-8859-1"?>
<!-- Generator: Adobe Illustrator 19.0.0, SVG Export Plug-In . SVG Version: 6.00 Build 0)  -->
<svg xmlns="http://www.w3.org/2000/svg" xmlns:xlink="http://www.w3.org/1999/xlink" version="1.1" id="Layer_1" x="0px" y="0px" viewBox="0 0 504 504" style="enable-background:new 0 0 504 504;" xml:space="preserve">
<g>
	<g>
		<path d="M252.016,198.712c-25.548,0-50.632,1.924-74.828,5.596V162.12l114.244-50.04c1.428-0.628,2.356-2.044,2.356-3.608    c0-1.56-0.924-2.98-2.356-3.604L177.188,54.824V49.22c0-6.516-5.296-11.812-11.812-11.812s-11.812,5.296-11.812,11.812v159.272    C60.188,227.88,0,272.564,0,322.836v19.66c0,68.428,113.036,124.096,252,124.096c138.968,0,252-55.668,252-124.096v-19.66    C504,254.392,390.984,198.712,252.016,198.712z M252.052,337.972c-20.876,0-35.424-7.976-35.424-15.136    c0-5.616,8.716-11.28,21.124-13.76l2.428-0.44c3.804-0.62,7.796-0.928,11.872-0.928c20.872,0,35.424,7.972,35.424,15.132    S272.92,337.972,252.052,337.972z"/>
	</g>
</g>
<g>
</g>
<g>
</g>
<g>
</g>
<g>
</g>
<g>
</g>
<g>
</g>
<g>
</g>
<g>
</g>
<g>
</g>
<g>
</g>
<g>
</g>
<g>
</g>
<g>
</g>
<g>
</g>
<g>
</g>
</svg>
